<mxfile host="app.diagrams.net" modified="2024-03-22T01:22:21.814Z" agent="Mozilla/5.0 (Windows NT 10.0; Win64; x64) AppleWebKit/537.36 (KHTML, like Gecko) Chrome/119.0.0.0 Safari/537.36" version="24.0.7" etag="0r7qda7kMg1cI2DhUaD1" type="github">
  <diagram name="Page-1" id="JgqDXPXEsdXj-i3ULE2Q">
    <mxGraphModel>
      <root>
        <mxCell id="0" />
        <mxCell id="1" parent="0" />
      </root>
    </mxGraphModel>
  </diagram>
</mxfile>
